# xmcd CD database file
#
# Track frame offsets:
#	150
#	28363
#	56355
#	77582
#	99012
#	122801
#	149405
#	171163
#
# Disc length: 2517 seconds
#
# Revision: 0
# Processed by: cddbd v1.5.1PL2 Copyright (c) Steve Scherf et al.
# Submitted via: CDex 1.51
#
DISCID=6309d308
DTITLE=Chano Domínguez - Acércate más
DYEAR=2006
DGENRE=Jazz
TTITLE0=Ana María
TTITLE1=Acércate más
TTITLE2=John's Abbey
TTITLE3=Cuando vuelva a tu lado
TTITLE4=Solar
TTITLE5=Afroblues
TTITLE6=Skylark
TTITLE7=Rumba marina
EXTD=YEAR: 2006
EXTT0=
EXTT1=
EXTT2=
EXTT3=
EXTT4=
EXTT5=
EXTT6=
EXTT7=
PLAYORDER=
